<svg width="326" height="88" viewBox="0 0 326 88" fill="none" xmlns="http://www.w3.org/2000/svg">
<g clip-path="url(#clip0_243_188)">
<path d="M113.516 45.3262C111.493 45.3262 109.657 44.942 108.001 44.1821C106.353 43.4223 104.936 42.3978 103.74 41.1086C102.554 39.8194 101.64 38.368 101 36.7629C100.36 35.1493 100.044 33.4845 100.044 31.7599C100.044 30.0353 100.385 28.3022 101.06 26.6971C101.734 25.1006 102.682 23.6662 103.894 22.4027C105.106 21.1391 106.541 20.1488 108.206 19.4231C109.87 18.6974 111.689 18.3388 113.661 18.3388C115.633 18.3388 117.52 18.723 119.176 19.4828C120.824 20.2427 122.241 21.2757 123.411 22.5734C124.589 23.8711 125.494 25.3311 126.126 26.9447C126.766 28.5583 127.082 30.2146 127.082 31.9136C127.082 33.6126 126.749 35.3372 126.092 36.9422C125.426 38.5388 124.495 39.9731 123.283 41.2366C122.071 42.5002 120.636 43.4991 118.989 44.2333C117.341 44.9676 115.514 45.3432 113.516 45.3432V45.3262ZM107.48 31.8282C107.48 32.7246 107.608 33.5955 107.856 34.4322C108.103 35.2689 108.479 36.0202 108.983 36.6861C109.486 37.352 110.11 37.8728 110.878 38.257C111.638 38.6412 112.543 38.8376 113.593 38.8376C114.643 38.8376 115.557 38.6412 116.333 38.2399C117.11 37.8387 117.742 37.3008 118.229 36.6093C118.715 35.9177 119.083 35.1579 119.313 34.3212C119.552 33.4845 119.672 32.6307 119.672 31.7514C119.672 30.872 119.544 29.9926 119.296 29.1645C119.048 28.3363 118.673 27.5935 118.169 26.9361C117.665 26.2702 117.034 25.758 116.257 25.3823C115.48 25.0067 114.583 24.8188 113.559 24.8188C112.534 24.8188 111.604 25.0152 110.844 25.4165C110.084 25.8177 109.452 26.3471 108.948 27.013C108.445 27.6789 108.078 28.4217 107.839 29.2669C107.599 30.1036 107.48 30.9574 107.48 31.8367V31.8282Z" fill="white"/>
<path d="M130.199 45.1383V18.5181H141.673C142.971 18.5181 144.175 18.7827 145.276 19.3035C146.377 19.8329 147.325 20.5329 148.127 21.4209C148.93 22.3088 149.545 23.2991 149.98 24.4005C150.416 25.5018 150.638 26.6117 150.638 27.7387C150.638 29.3096 150.27 30.8037 149.528 32.2039C148.793 33.604 147.769 34.7481 146.454 35.636C145.139 36.5239 143.611 36.9678 141.861 36.9678H137.515V45.1383H130.207H130.199ZM137.515 30.5902H141.374C141.673 30.5902 141.963 30.5049 142.237 30.3256C142.51 30.1548 142.74 29.8475 142.928 29.4291C143.116 29.0023 143.21 28.4388 143.21 27.7387C143.21 26.9874 143.107 26.4068 142.894 25.997C142.68 25.5872 142.416 25.2969 142.108 25.1347C141.793 24.9725 141.494 24.8871 141.186 24.8871H137.515V30.5902Z" fill="white"/>
<path d="M172.537 38.7693V45.1469H153.566V18.5266H172.204V24.9042H160.883V28.6522H170.556V34.5773H160.883V38.7778H172.545L172.537 38.7693Z" fill="white"/>
<path d="M183.26 32.0587V45.1469H175.952V18.5266H181.655L192.344 32.0673V18.5266H199.652V45.1469H193.838L183.26 32.0587Z" fill="white"/>
<path d="M228.774 27.252C227.92 26.7483 227.152 26.3471 226.451 26.0312C225.751 25.7153 224.992 25.4335 224.163 25.1859C223.335 24.9384 222.524 24.8103 221.73 24.8103C221.107 24.8103 220.595 24.9127 220.193 25.1091C219.792 25.3055 219.596 25.6384 219.596 26.1165C219.596 26.5605 219.792 26.9191 220.193 27.1923C220.595 27.4655 221.158 27.7131 221.901 27.9351C222.635 28.157 223.523 28.4302 224.548 28.7547C226.195 29.2498 227.621 29.8219 228.825 30.4622C230.02 31.1025 230.951 31.9307 231.6 32.9296C232.249 33.937 232.573 35.2689 232.573 36.9251C232.573 38.5814 232.283 39.845 231.711 40.9207C231.139 41.9965 230.362 42.8588 229.388 43.4991C228.415 44.1394 227.322 44.609 226.127 44.8907C224.923 45.1725 223.702 45.3176 222.456 45.3176C221.209 45.3176 219.852 45.1896 218.46 44.9249C217.069 44.6602 215.728 44.3016 214.431 43.8406C213.133 43.3796 211.946 42.8332 210.87 42.2099L214.021 35.7982C215.02 36.3958 215.933 36.8825 216.761 37.2581C217.589 37.6338 218.503 37.9667 219.519 38.2741C220.535 38.5729 221.551 38.7266 222.575 38.7266C223.378 38.7266 223.933 38.6241 224.24 38.4192C224.556 38.2143 224.71 37.9497 224.71 37.6167C224.71 37.0959 224.437 36.6946 223.882 36.4044C223.335 36.1226 222.61 35.8494 221.722 35.5847C220.834 35.3286 219.852 35.0213 218.776 34.6712C217.222 34.1504 215.95 33.5613 214.951 32.9039C213.952 32.2465 213.21 31.4611 212.74 30.5561C212.262 29.6511 212.031 28.5498 212.031 27.2606C212.031 25.2969 212.493 23.6577 213.415 22.3429C214.337 21.0281 215.558 20.0292 217.069 19.3462C218.58 18.6632 220.211 18.3217 221.961 18.3217C223.258 18.3217 224.513 18.4754 225.726 18.7913C226.938 19.1072 228.074 19.4828 229.141 19.9353C230.2 20.3878 231.13 20.8147 231.933 21.2074L228.782 27.2435L228.774 27.252Z" fill="white"/>
<path d="M235.783 45.1383V18.5181H247.258C248.555 18.5181 249.759 18.7827 250.861 19.3035C251.962 19.8329 252.91 20.5329 253.712 21.4209C254.515 22.3088 255.129 23.2991 255.565 24.4005C256 25.5018 256.222 26.6117 256.222 27.7387C256.222 29.3096 255.855 30.8037 255.112 32.2039C254.378 33.604 253.354 34.7481 252.039 35.636C250.724 36.5239 249.196 36.9678 247.445 36.9678H243.1V45.1383H235.792H235.783ZM243.1 30.5902H246.959C247.258 30.5902 247.548 30.5049 247.821 30.3256C248.094 30.1548 248.325 29.8475 248.513 29.4291C248.701 29.0023 248.794 28.4388 248.794 27.7387C248.794 26.9874 248.692 26.4068 248.479 25.997C248.265 25.5872 248 25.2969 247.693 25.1347C247.377 24.9725 247.078 24.8871 246.771 24.8871H243.1V30.5902Z" fill="white"/>
<path d="M263.351 18.5181H271.522L279.999 45.1383H272.572L271.197 39.9219H263.675L262.301 45.1383H254.839L263.351 18.5181ZM269.908 35.0554L267.432 25.6811L264.956 35.0554H269.908Z" fill="white"/>
<path d="M279.658 31.5635C279.658 29.9414 279.965 28.3449 280.58 26.7825C281.195 25.2201 282.083 23.8028 283.261 22.5222C284.439 21.2416 285.865 20.2256 287.555 19.4657C289.246 18.7059 291.149 18.3217 293.275 18.3217C295.828 18.3217 298.048 18.851 299.952 19.9182C301.847 20.9854 303.264 22.3856 304.186 24.1358L298.603 28.1143C298.278 27.2435 297.809 26.569 297.194 26.0909C296.579 25.6128 295.922 25.2884 295.205 25.1006C294.488 24.9127 293.796 24.8188 293.122 24.8188C292.072 24.8188 291.167 25.0237 290.407 25.4335C289.647 25.8433 289.024 26.3897 288.528 27.0642C288.033 27.7387 287.675 28.49 287.444 29.3181C287.205 30.1463 287.086 30.9659 287.086 31.7941C287.086 32.7161 287.222 33.604 287.495 34.4578C287.769 35.3115 288.17 36.0629 288.699 36.7288C289.22 37.3947 289.869 37.907 290.629 38.2826C291.389 38.6583 292.251 38.8461 293.199 38.8461C293.873 38.8461 294.565 38.7437 295.265 38.5302C295.965 38.3168 296.605 37.9753 297.177 37.4972C297.749 37.0191 298.193 36.3873 298.492 35.5847L304.451 39.1449C303.93 40.4426 303.051 41.5611 301.83 42.4831C300.609 43.4052 299.218 44.1138 297.664 44.6005C296.11 45.0871 294.573 45.3347 293.053 45.3347C291.081 45.3347 289.271 44.942 287.632 44.1565C285.993 43.371 284.584 42.3209 283.397 41.0061C282.211 39.6913 281.289 38.2229 280.64 36.5836C279.991 34.9444 279.666 33.2796 279.666 31.5806L279.658 31.5635Z" fill="white"/>
<path d="M326 38.7693V45.1469H307.029V18.5266H325.667V24.9042H314.346V28.6522H324.019V34.5773H314.346V38.7778H326.009L326 38.7693Z" fill="white"/>
<path d="M112.252 65.3298C112.252 66.1067 112.048 66.7726 111.646 67.3276C111.245 67.8825 110.707 68.3179 110.024 68.6168C109.341 68.9156 108.598 69.0692 107.779 69.0692H100.855V54.5724H108.325C109.008 54.5724 109.597 54.7517 110.092 55.1103C110.588 55.4688 110.972 55.9299 111.236 56.5019C111.501 57.0654 111.638 57.6545 111.638 58.2692C111.638 58.9778 111.458 59.6437 111.1 60.2584C110.741 60.8817 110.221 61.3342 109.555 61.633C110.383 61.8806 111.04 62.3245 111.527 62.9734C112.013 63.6223 112.252 64.4077 112.252 65.3298ZM103.151 56.5446V60.8134H107.36C107.745 60.8134 108.078 60.7195 108.385 60.5402C108.684 60.3524 108.923 60.1048 109.102 59.7803C109.281 59.4644 109.367 59.0973 109.367 58.6875C109.367 58.2777 109.281 57.8935 109.119 57.5776C108.957 57.2617 108.735 57.0056 108.453 56.8263C108.171 56.6385 107.847 56.5531 107.48 56.5531H103.151V56.5446ZM109.905 64.9029C109.905 64.4931 109.819 64.126 109.648 63.793C109.478 63.46 109.247 63.1868 108.957 62.9734C108.667 62.76 108.317 62.6575 107.924 62.6575H103.143V67.0885H107.779C108.189 67.0885 108.547 66.9861 108.872 66.7897C109.187 66.5933 109.444 66.3287 109.623 65.9957C109.811 65.6627 109.896 65.2956 109.896 64.9029H109.905Z" fill="white"/>
<path d="M114.583 71.5793C114.788 71.6049 114.985 71.6391 115.189 71.6732C115.394 71.7074 115.548 71.7244 115.668 71.7244C115.898 71.7244 116.103 71.6561 116.274 71.511C116.444 71.3659 116.615 71.1097 116.794 70.7341C116.974 70.3584 117.187 69.812 117.452 69.0949L113.064 58.4741H115.411L118.681 66.8239L121.584 58.4741H123.753L118.912 71.5537C118.758 71.9464 118.545 72.305 118.254 72.638C117.964 72.9709 117.614 73.2271 117.196 73.4234C116.777 73.6113 116.274 73.7052 115.702 73.7052C115.539 73.7052 115.369 73.6881 115.189 73.6625C115.01 73.6369 114.814 73.5942 114.6 73.5429V71.5793H114.583Z" fill="white"/>
<path d="M128.756 66.3884C128.969 66.5507 129.311 66.7129 129.755 66.8665C130.207 67.0202 130.736 67.1056 131.351 67.1056C131.966 67.1056 132.435 67.0117 132.811 66.8153C133.187 66.619 133.468 66.3201 133.665 65.9274C133.861 65.5261 133.998 65.0224 134.075 64.3992C134.151 63.7759 134.186 63.0417 134.186 62.1965V54.5724H136.491V61.8806C136.491 62.9478 136.431 63.9296 136.32 64.8175C136.2 65.7054 135.978 66.4824 135.637 67.1397C135.295 67.7971 134.792 68.3009 134.117 68.6509C133.443 69.0009 132.538 69.1802 131.411 69.1802C130.745 69.1802 130.156 69.1034 129.635 68.9583C129.114 68.8046 128.645 68.5826 128.209 68.2838L128.764 66.4055L128.756 66.3884Z" fill="white"/>
<path d="M143.432 54.5639H145.6L151.235 69.0607H148.828L147.41 65.1163H141.613L140.188 69.0607H137.754L143.432 54.5639ZM146.796 63.4259L144.516 57.0739L142.219 63.4259H146.796Z" fill="white"/>
<path d="M153.028 69.0607V54.5639H155.316V62.0257L162.138 54.5382H164.673L158.953 60.9585L164.998 69.0522H162.402L157.502 62.4099L155.316 64.6809V69.0607H153.028Z" fill="white"/>
<path d="M170.692 54.5639H172.861L178.496 69.0607H176.088L174.671 65.1163H168.874L167.448 69.0607H165.015L170.692 54.5639ZM174.056 63.4259L171.777 57.0739L169.48 63.4259H174.056Z" fill="white"/>
<path d="M180.289 69.0607V54.5639H182.577V67.0373H190.355V69.0607H180.289Z" fill="white"/>
<path d="M196.399 54.5639H198.568L204.202 69.0607H201.795L200.378 65.1163H194.581L193.155 69.0607H190.722L196.399 54.5639ZM199.763 63.4259L197.483 57.0739L195.187 63.4259H199.763Z" fill="white"/>
<path d="M22.5051 47.5801C19.3377 47.5801 16.7764 50.1414 16.7764 53.3088C16.7764 56.4763 19.3462 59.0376 22.5051 59.0376C25.664 59.0376 28.2339 56.4763 28.2339 53.3088C28.2339 50.1414 25.6726 47.5801 22.5051 47.5801Z" fill="#F00A0A"/>
<path d="M22.5051 66.4482C19.3377 66.4482 16.7764 69.0095 16.7764 72.1769C16.7764 75.3444 19.3462 77.9057 22.5051 77.9057C25.664 77.9057 28.2339 75.3444 28.2339 72.1769C28.2339 69.0095 25.6726 66.4482 22.5051 66.4482Z" fill="#F00A0A"/>
<path d="M22.5051 9.84386C19.3377 9.84386 16.7764 12.4051 16.7764 15.5726C16.7764 18.74 19.3462 21.3013 22.5051 21.3013C25.664 21.3013 28.2339 18.74 28.2339 15.5726C28.2339 12.4051 25.6726 9.84386 22.5051 9.84386Z" fill="#F00A0A"/>
<path d="M22.5051 28.712C19.3377 28.712 16.7764 31.2733 16.7764 34.4407C16.7764 37.6082 19.3462 40.1694 22.5051 40.1694C25.664 40.1694 28.2339 37.6082 28.2339 34.4407C28.2339 31.2733 25.6726 28.712 22.5051 28.712Z" fill="#F00A0A"/>
<path d="M56.0579 47.5801C52.8905 47.5801 50.3292 50.1414 50.3292 53.3088C50.3292 56.4763 52.899 59.0376 56.0579 59.0376C59.2168 59.0376 61.7867 56.4763 61.7867 53.3088C61.7867 50.1414 59.2168 47.5801 56.0579 47.5801Z" fill="#F00A0A"/>
<path d="M56.0579 66.4482C52.8905 66.4482 50.3292 69.0095 50.3292 72.1769C50.3292 75.3444 52.899 77.9057 56.0579 77.9057C59.2168 77.9057 61.7867 75.3444 61.7867 72.1769C61.7867 69.0095 59.2168 66.4482 56.0579 66.4482Z" fill="#F00A0A"/>
<path d="M56.0579 9.84386C52.8905 9.84386 50.3292 12.4051 50.3292 15.5726C50.3292 18.74 52.899 21.3013 56.0579 21.3013C59.2168 21.3013 61.7867 18.74 61.7867 15.5726C61.7867 12.4051 59.2168 9.84386 56.0579 9.84386Z" fill="#F00A0A"/>
<path d="M56.0579 28.712C52.8905 28.712 50.3292 31.2733 50.3292 34.4407C50.3292 37.6082 52.899 40.1694 56.0579 40.1694C59.2168 40.1694 61.7867 37.6082 61.7867 34.4407C61.7867 31.2733 59.2168 28.712 56.0579 28.712Z" fill="#F00A0A"/>
<path d="M5.72873 68.6765C8.89263 68.6765 11.4575 66.1117 11.4575 62.9478C11.4575 59.7839 8.89263 57.219 5.72873 57.219C2.56484 57.219 0 59.7839 0 62.9478C0 66.1117 2.56484 68.6765 5.72873 68.6765Z" fill="#F00A0A"/>
<path d="M5.72873 30.5305C8.89263 30.5305 11.4575 27.9656 11.4575 24.8017C11.4575 21.6379 8.89263 19.073 5.72873 19.073C2.56484 19.073 0 21.6379 0 24.8017C0 27.9656 2.56484 30.5305 5.72873 30.5305Z" fill="#F00A0A"/>
<path d="M5.72873 49.6035C8.89263 49.6035 11.4575 47.0387 11.4575 43.8748C11.4575 40.7109 8.89263 38.146 5.72873 38.146C2.56484 38.146 0 40.7109 0 43.8748C0 47.0387 2.56484 49.6035 5.72873 49.6035Z" fill="#F00A0A"/>
<path d="M72.8343 57.2105C69.6669 57.2105 67.1056 59.7718 67.1056 62.9392C67.1056 66.1067 69.6669 68.668 72.8343 68.668C76.0018 68.668 78.5631 66.1067 78.5631 62.9392C78.5631 59.7718 75.9932 57.2105 72.8343 57.2105Z" fill="#F00A0A"/>
<path d="M72.8343 30.5305C76.0018 30.5305 78.5631 27.9692 78.5631 24.8017C78.5631 21.6343 75.9932 19.073 72.8343 19.073C69.6754 19.073 67.1056 21.6343 67.1056 24.8017C67.1056 27.9692 69.6669 30.5305 72.8343 30.5305Z" fill="#F00A0A"/>
<path d="M72.8343 38.146C69.6669 38.146 67.1056 40.7073 67.1056 43.8748C67.1056 47.0422 69.6669 49.6035 72.8343 49.6035C76.0018 49.6035 78.5631 47.0422 78.5631 43.8748C78.5631 40.7073 75.9932 38.146 72.8343 38.146Z" fill="#F00A0A"/>
<path d="M39.2815 76.2835C36.1141 76.2835 33.5528 78.8448 33.5528 82.0123C33.5528 85.1797 36.1226 87.741 39.2815 87.741C42.4404 87.741 45.0103 85.1797 45.0103 82.0123C45.0103 78.8448 42.449 76.2835 39.2815 76.2835Z" fill="#F00A0A"/>
<path d="M39.2815 57.2105C36.1141 57.2105 33.5528 59.7718 33.5528 62.9392C33.5528 66.1067 36.1226 68.668 39.2815 68.668C42.4404 68.668 45.0103 66.1067 45.0103 62.9392C45.0103 59.7718 42.449 57.2105 39.2815 57.2105Z" fill="#F00A0A"/>
<path d="M39.2815 38.146C36.1141 38.146 33.5528 40.7073 33.5528 43.8748C33.5528 47.0422 36.1226 49.6035 39.2815 49.6035C42.4404 49.6035 45.0103 47.0422 45.0103 43.8748C45.0103 40.7073 42.449 38.146 39.2815 38.146Z" fill="#F00A0A"/>
<path d="M39.2815 19.073C36.1141 19.073 33.5528 21.6343 33.5528 24.8017C33.5528 27.9692 36.1226 30.5305 39.2815 30.5305C42.4404 30.5305 45.0103 27.9692 45.0103 24.8017C45.0103 21.6343 42.449 19.073 39.2815 19.073Z" fill="#F00A0A"/>
<path d="M39.2815 0C36.1141 0 33.5528 2.56128 33.5528 5.72873C33.5528 8.89619 36.1226 11.4575 39.2815 11.4575C42.4404 11.4575 45.0103 8.89619 45.0103 5.72873C45.0103 2.56128 42.449 0 39.2815 0Z" fill="#F00A0A"/>
</g>
<defs>
<clipPath id="clip0_243_188">
<rect width="326" height="87.7495" fill="white"/>
</clipPath>
</defs>
</svg>
